<svg id="Layer_1" data-name="Layer 1" xmlns="http://www.w3.org/2000/svg" viewBox="0 0 360 360"><defs><style>.cls-1{fill:#fedd55;}</style></defs><path class="cls-1" d="M354.45,164.85q-9.19-13-18.68-25.81a26.82,26.82,0,0,1-5.5-17c.18-10.16.05-20.32.05-30.49,0-14.09-5.92-22.26-19.22-26.58-9.42-3.06-18.82-6.22-28.3-9.13a29.8,29.8,0,0,1-16.26-12c-5.86-8.44-12-16.67-18.06-25a24.36,24.36,0,0,0-10-8.5h0a20.39,20.39,0,0,0-15.3-1.6c-11.5,3.41-22.9,7.13-34.3,10.82a26.78,26.78,0,0,1-17.15,0q-15.26-5-30.56-9.94c-12.06-3.85-22-.51-29.48,9.77-6.1,8.41-12.25,16.79-18.28,25.25A27.44,27.44,0,0,1,78.77,55.43c-9.9,3.06-19.71,6.39-29.56,9.6C36.5,69.17,30.35,77.55,30.34,90.81c0,9.59-.3,19.18.08,28.75.33,8.26-2.34,15.07-7.08,21.73C15.49,152.34,6,162.32.8,175.15-1,179.71.8,185,.8,185a56.66,56.66,0,0,0,8,14.11c5.47,7.27,10.67,14.76,16.09,22.08a26.88,26.88,0,0,1,5.47,16.94c-.15,10.4-.05,20.8,0,31.2,0,13.27,6.16,21.65,18.87,25.79,9.85,3.21,19.66,6.54,29.56,9.6a27.44,27.44,0,0,1,14.65,10.74c6.1,8.56,12.29,17,18.48,25.54,7.26,10,17.19,13.26,28.94,9.54,10.43-3.3,20.83-6.71,31.24-10.11a25.93,25.93,0,0,1,16.47,0q15.27,5,30.55,10c6.53,2.11,13,2.52,19.39-.64h0a24.32,24.32,0,0,0,10-8.51c6.05-8.3,12.2-16.53,18.06-25a29.74,29.74,0,0,1,16.27-12c9.47-2.91,18.87-6.07,28.3-9.13,13.29-4.32,19.2-12.49,19.21-26.59,0-10,.14-20.1-.05-30.14a27.18,27.18,0,0,1,5.49-17.31q9.47-12.81,18.69-25.82C361.85,184.79,361.85,175.34,354.45,164.85ZM238.25,10.57c-.36.22-.71.46-1.07.69C237.54,11,237.89,10.79,238.25,10.57ZM177.26,49c-1.73,1.59-3.42,3.23-5,5C173.84,52.23,175.53,50.59,177.26,49Zm-2,260,2,1.9ZM300.76,191.08a118.58,118.58,0,0,1-28.36,67.11c-18.93,22.13-42.8,35.47-71.23,41-11.09,2.16-22.3,1.3-33.47,1.51a41.35,41.35,0,0,0,6.23,7,41.35,41.35,0,0,1-6.23-7l-2-.89c-6.73.17-13.12-1.77-19.42-3.64a119.76,119.76,0,0,1-48.66-27.91c-19.15-18-31-40-36.23-65.54a115,115,0,0,1-1.83-17.65A118.13,118.13,0,0,1,68.07,135,121.72,121.72,0,0,1,144,64.67c7.06-2.24,14.22-4.34,21.76-4.37l2-.89c4.79,0,9.58,0,14.36,0,26.67.16,50.53,8.64,71.65,24.72,19.34,14.73,32.85,33.75,40.93,56.72A116.43,116.43,0,0,1,300.76,191.08Z"/></svg>