<svg id="Layer_1" data-name="Layer 1" xmlns="http://www.w3.org/2000/svg" viewBox="0 0 360 360"><defs><style>.cls-1{fill:#fece72;}.cls-2{fill:#fefefe;}</style></defs><path class="cls-1" d="M22.88.44c3.18,2.14,4.67,5.42,5.76,8.88a5.34,5.34,0,0,0,3.84,4A25.26,25.26,0,0,1,39,16.49c3.68,2.5,3.82,7.41-.2,9.06a22.81,22.81,0,0,0-13.3,13.28,4.88,4.88,0,0,1-9.12-.11C13.79,32.34,10,27.9,3.35,25.77c-1.16-.38-1.95-1.9-2.91-2.89v-3.5c2.17-3.53,5.78-4.91,9.41-6.09a4.75,4.75,0,0,0,3.44-3.44c1.18-3.63,2.56-7.24,6.09-9.41Z"/><path class="cls-2" d="M166,.44c-.23.4-.47.56-.7,0Z"/><path class="cls-2" d="M.44,163.87c.48.23.45.47,0,.7Z"/></svg>