<svg xmlns="http://www.w3.org/2000/svg" width="31.5" height="36" viewBox="0 0 31.5 36">
  <path id="Icon_awesome-book" data-name="Icon awesome-book" d="M31.5,25.313V1.688A1.683,1.683,0,0,0,29.813,0H6.75A6.752,6.752,0,0,0,0,6.75v22.5A6.752,6.752,0,0,0,6.75,36H29.813A1.683,1.683,0,0,0,31.5,34.313V33.188a1.7,1.7,0,0,0-.626-1.315,15.68,15.68,0,0,1,0-5.252A1.676,1.676,0,0,0,31.5,25.313ZM9,9.422A.423.423,0,0,1,9.422,9H24.328a.423.423,0,0,1,.422.422v1.406a.423.423,0,0,1-.422.422H9.422A.423.423,0,0,1,9,10.828Zm0,4.5a.423.423,0,0,1,.422-.422H24.328a.423.423,0,0,1,.422.422v1.406a.423.423,0,0,1-.422.422H9.422A.423.423,0,0,1,9,15.328ZM26.817,31.5H6.75a2.25,2.25,0,0,1,0-4.5H26.817A25.313,25.313,0,0,0,26.817,31.5Z"/>
</svg>
