<svg xmlns="http://www.w3.org/2000/svg" width="45.004" height="35.997" viewBox="0 0 45.004 35.997">
  <path id="Icon_awesome-code" data-name="Icon awesome-code" d="M19.61,35.965,15.321,34.72a.845.845,0,0,1-.577-1.048L24.342.612A.845.845,0,0,1,25.39.035L29.679,1.28a.845.845,0,0,1,.577,1.048l-9.6,33.061a.843.843,0,0,1-1.048.577Zm-8.016-7.889,3.059-3.263A.844.844,0,0,0,14.6,23.6L8.227,18l6.37-5.6a.838.838,0,0,0,.056-1.209L11.595,7.924a.845.845,0,0,0-1.2-.035L.267,17.381a.838.838,0,0,0,0,1.23l10.132,9.5a.838.838,0,0,0,1.2-.035Zm23.006.042,10.132-9.5a.838.838,0,0,0,0-1.23L34.6,7.882a.851.851,0,0,0-1.2.035L30.347,11.18a.844.844,0,0,0,.056,1.209L36.773,18,30.4,23.6a.838.838,0,0,0-.056,1.209l3.059,3.263a.845.845,0,0,0,1.2.042Z" transform="translate(0.002 -0.003)"/>
</svg>
