<svg xmlns="http://www.w3.org/2000/svg" width="33.75" height="27.001" viewBox="0 0 33.75 27.001">
  <path id="Icon_awesome-github-alt" data-name="Icon awesome-github-alt" d="M13.085,23.112c0,1.47-.766,3.874-2.58,3.874s-2.58-2.4-2.58-3.874.766-3.874,2.58-3.874,2.58,2.4,2.58,3.874ZM33.75,19.561a15.239,15.239,0,0,1-1.23,6.68C29.855,31.627,22.528,31.5,17.283,31.5c-5.33,0-13.092.19-15.863-5.259A15.05,15.05,0,0,1,0,19.561a12.092,12.092,0,0,1,2.918-7.988,11.007,11.007,0,0,1-.541-3.431A7,7,0,0,1,3.4,4.5a10.986,10.986,0,0,1,7.65,2.531,26.933,26.933,0,0,1,6.237-.7,24.255,24.255,0,0,1,5.653.647A10.867,10.867,0,0,1,30.523,4.5a6.936,6.936,0,0,1,1.027,3.642,10.852,10.852,0,0,1-.541,3.389,12.115,12.115,0,0,1,2.742,8.03Zm-4.521,3.551c0-3.087-1.877-5.808-5.168-5.808a28.91,28.91,0,0,0-3.937.422,20.66,20.66,0,0,1-3.171.225,20.786,20.786,0,0,1-3.171-.225A28.441,28.441,0,0,0,9.844,17.3c-3.291,0-5.168,2.721-5.168,5.808,0,6.173,5.653,7.123,10.575,7.123H18.64c4.943,0,10.589-.942,10.589-7.123Zm-5.808-3.874c-1.814,0-2.58,2.4-2.58,3.874s.766,3.874,2.58,3.874S26,24.581,26,23.112,25.235,19.238,23.421,19.238Z" transform="translate(0 -4.5)"/>
</svg>
