<svg id="Layer_1" data-name="Layer 1" xmlns="http://www.w3.org/2000/svg" xmlns:xlink="http://www.w3.org/1999/xlink" viewBox="0 0 360 360"><defs><style>.cls-1{fill:none;}.cls-2{fill:#eeeced;}.cls-3{clip-path:url(#clip-path);}.cls-4{fill:#d3d3d4;}.cls-5{fill:#fefefe;}.cls-6{fill:#fe8e9e;}.cls-7{fill:#344043;}.cls-8{fill:#d4d4d4;}.cls-9{fill:#343f42;}.cls-10{fill:#b8babb;}</style><clipPath id="clip-path"><circle class="cls-1" cx="180" cy="180.06" r="179.02"/></clipPath></defs><circle class="cls-2" cx="180" cy="180.06" r="179.02"/><g class="cls-3"><path class="cls-4" d="M216.42,4c-7.24,2.52-14.74,4.1-22,6.66a178.54,178.54,0,0,0-55.25,31.6c-7.27,6.06-13.78,12.87-20.3,19.68-.86.91-1.82,1.8-1.62,3.78,6.34-3.24,12.8-3.83,19.21-1a20.3,20.3,0,0,1,10,8.91c4.64,8.43,3.51,19.17-2.9,26-5.86,6.27-16.1,8.56-23.46,5.18-9.63-4.42-15.74-12.49-13.79-26.88-2.71,4.4-5.52,8.75-8.13,13.22A179.17,179.17,0,0,0,74.92,190.5a171.19,171.19,0,0,0,6.74,39.1c1.18,4,1.19,3.89,4.59,1.89,27.49-16.18,61.27.21,65.45,31.19,2.42,17.88-4.68,32.39-20.23,42.24-3.56,2.25-3.64,2.21-.52,5.25a172.7,172.7,0,0,0,63.15,39.05c7.35,2.63,15,4.25,22.32,6.79-4.11.69-8.23,1.3-12.31,2.12-1.52.3-3.65-1.07-4.47,1.43H160.36c-.83-2.5-3-1.2-4.48-1.43-21.34-3.34-41.67-9.58-60.78-19.87a181,181,0,0,1-52.76-43.08c-21.72-25.73-34.93-55.35-40-88.66-.34-2.22.91-5.23-1.9-6.88V164.57c.45-.23.48-.47,0-.7v-2.81c1-.09,1.36-.8,1.35-1.7,0-3.52.83-6.92,1.41-10.37a175.23,175.23,0,0,1,24.17-63.7c10.34-16.74,23.43-31.1,38.36-43.8A166.44,166.44,0,0,1,103.1,17.64c17.84-8.36,36.53-14,56.26-15.84.9-.08,1.61-.32,1.7-1.36h4.21c.23.56.47.4.7,0h33.67A1.28,1.28,0,0,0,201,1.77C206.19,2,211.24,3.46,216.42,4ZM108.59,311.87c5.83.19,11.26-1.45,16.61-3.55,1.52-.6,2.16-1.05.75-2.58q-4.86-5.26-9.45-10.75a174.61,174.61,0,0,1-25.08-39.38c-2.9-6.38-5.38-12.91-7.77-19.48-.83-2.28-1.5-2-3.05-.62-10,9-14.89,20.1-15,33.68C65.36,291.5,85.28,312,108.59,311.87ZM43.77,169.46c-5.72-1.25-11.22,6.26-11.06,10.69a11.28,11.28,0,0,0,10.66,10.39c6.64,0,11.05-4.09,11.08-10.34C54.49,173.76,50.23,169.48,43.77,169.46Z"/></g><path class="cls-5" d="M166,.44c-.23.4-.47.56-.7,0Z"/><path class="cls-5" d="M.44,163.87c.48.23.45.47,0,.7Z"/><path class="cls-4" d="M254.35,214.46c0-17.64,14.91-32.71,32.68-32.26,19.29.48,32.37,14.43,32.27,32.55-.11,18.32-13.17,32.37-32.72,32.4C268.72,247.18,254.58,233.18,254.35,214.46Z"/><path class="cls-6" d="M231.08,144.18c7.3-1.56,14.21-.64,20.3,3.81,9.41,6.86,9.31,17.92-.07,24.84-8.82,6.52-22.64,5.66-30.32-1.88-7.15-7-6.68-15.91,1.15-22.35a20.54,20.54,0,0,0,1.47-1.48C226.89,148.14,229.28,146.91,231.08,144.18Z"/><path class="cls-6" d="M136.21,146.92c6.6,4.88,9,10.41,7.22,16.73s-9,12.11-16.49,12.77c-5.5.49-10.93.33-16-2.54-5.69-3.25-9.58-7.9-9.27-14.54.34-7.08,5-11.62,11.28-14.31a25.41,25.41,0,0,1,15.05-1.5C130.46,147.48,131.7,148,136.21,146.92Z"/><path class="cls-7" d="M180,167.7c-7.06-.24-12.48-3.32-16-9.49-1.72-3-1-6.05,1.54-7.68a5.09,5.09,0,0,1,7.5,1.93,7.74,7.74,0,0,0,13.83.09,5.1,5.1,0,0,1,7.46-2.08c2.62,1.6,3.38,4.65,1.7,7.64C192.55,164.32,187.13,167.41,180,167.7Z"/><path class="cls-8" d="M254.35,73.82a10.87,10.87,0,1,1,11,10.79A11.13,11.13,0,0,1,254.35,73.82Z"/><path class="cls-8" d="M220.27,309.77c-5.15,1.23-10.91-6-10.81-10.58.13-6,4.85-10.52,11.18-10.49s10.57,4.34,10.56,10.55S226.82,309.78,220.27,309.77Z"/><path class="cls-9" d="M136.21,146.92c-4.51,1.07-5.75.56-8.19-3.39,0-2.92-.08-5.84,0-8.76a5.22,5.22,0,0,1,5.34-5.3,5.07,5.07,0,0,1,5.28,5.32C138.55,138.93,140.26,143.55,136.21,146.92Z"/><path class="cls-9" d="M231.08,144.18c-1.8,2.73-4.19,4-7.47,2.94-3.16-2.64-4.49-12.07-2.13-15.36a5.06,5.06,0,0,1,5.82-2.1,4.9,4.9,0,0,1,3.9,4.77C231.28,137.68,231.13,140.93,231.08,144.18Z"/><path class="cls-10" d="M108.59,311.87c-23.31.12-43.23-20.37-43-42.68.13-13.58,5-24.66,15-33.68,1.55-1.4,2.22-1.66,3.05.62,2.39,6.57,4.87,13.1,7.77,19.48A174.61,174.61,0,0,0,116.5,295q4.59,5.49,9.45,10.75c1.41,1.53.77,2-.75,2.58C119.85,310.42,114.42,312.06,108.59,311.87Z"/><path class="cls-10" d="M43.77,169.46c6.46,0,10.72,4.3,10.68,10.74,0,6.25-4.44,10.36-11.08,10.34a11.28,11.28,0,0,1-10.66-10.39C32.55,175.72,38.05,168.21,43.77,169.46Z"/></svg>