<svg id="Layer_1" data-name="Layer 1" xmlns="http://www.w3.org/2000/svg" viewBox="0 0 360 360"><defs><style>.cls-1{fill:#fece72;}</style></defs><path class="cls-1" d="M318.68,293.66c.29,1.56,1.72,1.38,2.75,1.72a47.4,47.4,0,0,1,10.14,4.69c5.35,3.29,5.42,9.73.16,13.21a35.16,35.16,0,0,1-9.79,4.58,5.26,5.26,0,0,0-4.17,4A49.19,49.19,0,0,1,314,330.5c-1.51,2.92-3.7,5.13-7.31,5.16s-5.73-2.19-7.39-5.05a44.42,44.42,0,0,1-4-9.29c-.39-1.27-.67-2.53-2.3-2.69-3.51-1.53-7.17-2.73-10.49-4.7-2.87-1.71-5-4-4.83-7.54.13-3.34,2.16-5.53,5.09-6.95,1.58-.77,3.06-1.95,4.71-2.27,5.72-1.12,8.48-4.79,9.79-10.15a18.42,18.42,0,0,1,2.39-4.64c3.57-6.12,10-6.15,13.95-.16C315.9,285.77,317,289.84,318.68,293.66Z"/></svg>