<svg id="Layer_1" data-name="Layer 1" xmlns="http://www.w3.org/2000/svg" viewBox="0 0 360 360"><defs><style>.cls-1{fill:#fedd55;}.cls-2{fill:#58575c;}.cls-3{fill:#fc737c;}.cls-4{fill:#feea98;}.cls-5{fill:#fe757d;}.cls-6{fill:#5d5b5d;}.cls-7{fill:#5d5b5e;}.cls-8{fill:#fe757c;}</style></defs><path class="cls-1" d="M165.72,60.3c-3.54,4.72-7.15,9.4-10.62,14.18a177,177,0,0,0-30.84,70.75,157.67,157.67,0,0,0-2.81,20.65c-3.53.82-4.91,3.21-4.88,6.65,0,2,.09,4,0,5.93-.19,3.39,1,5.9,4.23,7.25,1.16,22,5.3,43.34,13.92,63.72a187.73,187.73,0,0,0,30,48.6,11.21,11.21,0,0,1,1,1.79c-6.73.17-13.12-1.77-19.42-3.64a119.76,119.76,0,0,1-48.66-27.91c-19.15-18-31-40-36.23-65.54a115,115,0,0,1-1.83-17.65A118.13,118.13,0,0,1,68.07,135,121.72,121.72,0,0,1,144,64.67C151,62.43,158.18,60.33,165.72,60.3ZM95.26,206h0c2.56,0,5.14.14,7.69,0,4.59-.31,8.53-4.34,8.59-8.58s-3.85-8.49-8.42-8.73a132.94,132.94,0,0,0-14.67,0A8.67,8.67,0,0,0,80,197.9c.18,4.49,4.19,8,9.28,8.07C91.3,206,93.28,206,95.26,206Z"/><path class="cls-2" d="M157,211.3a58.57,58.57,0,0,1-14.11-9,16,16,0,0,1,18.42-25.88c3.61,1.91,7,4.18,10.45,6.4,5.72,3.69,11.37,3.69,17.07,0,3-2,6.07-3.94,9.2-5.77,8-4.69,17.22-2.66,22.19,4.82,4.87,7.32,3,16.86-4.65,22.2-3.8,2.67-7.61,5.41-11.95,7.22-.49-2.27-2-3.94-3.49-5.53-7.66-7.84-21.81-10-32.51-4.93C162.91,203.07,158.84,206.05,157,211.3Z"/><path class="cls-3" d="M157,211.3c1.81-5.25,5.88-8.23,10.62-10.48,10.7-5.08,24.85-2.91,32.51,4.93,1.54,1.59,3,3.26,3.49,5.53-6.68,5.53-13.81,10.27-22.81,10.6a21.63,21.63,0,0,1-9.81-1.82A56.22,56.22,0,0,1,157,211.3Z"/><path class="cls-4" d="M294.64,140.85c-8.08-23-21.59-42-40.93-56.72-21.12-16.08-45-24.56-71.65-24.72-4.78,0-9.57,0-14.36,0l-2,.89c-3.54,4.72-7.15,9.4-10.62,14.18a177,177,0,0,0-30.84,70.75,157.67,157.67,0,0,0-2.81,20.65c4.52.65,6,2.25,6.12,6.79q.09,3.12,0,6.24c-.12,4.77-1.89,6.52-6.78,6.8,1.16,22,5.3,43.34,13.92,63.72a187.73,187.73,0,0,0,30,48.6,11.21,11.21,0,0,1,1,1.79l2,.89c11.17-.21,22.38.65,33.47-1.51,28.43-5.54,52.3-18.88,71.23-41a118.58,118.58,0,0,0,28.36-67.11A116.43,116.43,0,0,0,294.64,140.85Zm-79,63.21c-3.8,2.67-7.61,5.41-11.95,7.22-6.68,5.53-13.81,10.27-22.81,10.6a21.63,21.63,0,0,1-9.81-1.82,56.22,56.22,0,0,1-14-8.76,58.57,58.57,0,0,1-14.11-9,16,16,0,0,1,18.42-25.88c3.61,1.91,7,4.18,10.45,6.4,5.72,3.69,11.37,3.69,17.07,0,3-2,6.07-3.94,9.2-5.77,8-4.69,17.22-2.66,22.19,4.82C225.12,189.18,223.23,198.72,215.6,204.06ZM244,180.39c-.33,3-2,5-5.11,5.22s-5.11-1.61-5.56-4.64a34.34,34.34,0,0,1,0-10.42,4.92,4.92,0,0,1,5.3-4.53c3.22,0,4.88,2,5.33,4.95a33.23,33.23,0,0,1,0,4.89h0A40.24,40.24,0,0,1,244,180.39ZM271.42,206c-4.19,0-8.39.06-12.58,0-5.38-.08-9.57-3.82-9.69-8.56s4.22-8.74,9.77-8.84c2,0,4,0,5.94,0,2.33,0,4.66-.11,7,0,5.37.33,9,4.21,8.81,9.27C280.48,202.35,276.49,205.89,271.42,206Z"/><path class="cls-5" d="M264.86,188.56c2.33,0,4.66-.12,7,0,5.37.33,9,4.21,8.81,9.27-.18,4.49-4.17,8-9.24,8.1-4.19,0-8.39.06-12.58,0-5.38-.08-9.57-3.82-9.69-8.56s4.22-8.74,9.77-8.84C260.9,188.52,262.88,188.55,264.86,188.56Z"/><path class="cls-6" d="M120.79,185.71c-3.24-1.35-4.42-3.86-4.23-7.25.1-2,0-4,0-5.93,0-3.44,1.35-5.83,4.88-6.65,4.52.65,6,2.25,6.12,6.79q.09,3.12,0,6.24C127.45,183.68,125.68,185.43,120.79,185.71Z"/><path class="cls-7" d="M244.06,175.86a40.24,40.24,0,0,1,0,4.53c-.33,3-2,5-5.11,5.22s-5.11-1.61-5.56-4.64a34.34,34.34,0,0,1,0-10.42,4.92,4.92,0,0,1,5.3-4.53c3.22,0,4.88,2,5.33,4.95a33.23,33.23,0,0,1,0,4.89Z"/><path class="cls-8" d="M95.26,206c-2,0-4,0-5.94,0-5.09-.09-9.1-3.58-9.28-8.07a8.67,8.67,0,0,1,8.41-9.27,132.94,132.94,0,0,1,14.67,0c4.57.24,8.49,4.56,8.42,8.73s-4,8.27-8.59,8.58c-2.55.17-5.13,0-7.69,0Z"/></svg>